<svg viewBox="0 0 1138 1138" xmlns="http://www.w3.org/2000/svg">
<rect width="1138" height="1138" rx="228" fill="#000"/>
<path fill="#fff" d="M569 853C725.85 853 853 725.85 853 569C853 412.15 725.85 285 569 285C412.15 285 285 412.15 285 569L285 1137.42C242 1115.95 201.77 1089.74 165 1059.49L165 569C165 345.88 345.88 165 569 165C792.12 165 973 345.88 973 569C973 792.12 792.12 973 569 973C510.61 973 455.12 960.61 405 938.33L405 800.89C451.32 833.71 507.91 853 569 853ZM569 733C478.43 733 405 659.57 405 569C405 478.43 478.43 405 569 405C659.57 405 733 478.43 733 569C733 659.57 659.57 733 569 733Z"/>
</svg>
